<?xml version="1.0" encoding="utf-8"?>
<!-- Generator: Adobe Illustrator 24.0.1, SVG Export Plug-In . SVG Version: 6.00 Build 0)  -->
<svg version="1.1" id="Layer_1" xmlns="http://www.w3.org/2000/svg" xmlns:xlink="http://www.w3.org/1999/xlink" x="0px" y="0px"
	 viewBox="0 0 498 121" style="enable-background:new 0 0 498 121;" xml:space="preserve">
<style type="text/css">
	.st0{fill:#fff;}
	.st1{fill:#fff;}
</style>
<g>
	<path class="st0" d="M159.5,51.6l-3.6,3.7c-3-2.9-6-4.4-8.9-4.4c-1.8,0-3.4,0.6-4.7,1.8c-1.3,1.2-2,2.6-2,4.2
		c0,1.4,0.5,2.8,1.6,4.1c1.1,1.3,3.3,2.9,6.8,4.6c4.2,2.2,7.1,4.3,8.6,6.3c1.5,2,2.2,4.3,2.2,6.9c0,3.6-1.3,6.7-3.8,9.2
		c-2.5,2.5-5.7,3.7-9.5,3.7c-2.5,0-4.9-0.6-7.2-1.7c-2.3-1.1-4.2-2.6-5.7-4.6l3.5-4c2.9,3.3,5.9,4.9,9.2,4.9c2.3,0,4.2-0.7,5.8-2.2
		c1.6-1.5,2.4-3.2,2.4-5.1c0-1.6-0.5-3-1.6-4.3c-1.1-1.2-3.4-2.8-7.1-4.7c-4-2-6.7-4.1-8.1-6c-1.4-2-2.1-4.3-2.1-6.8
		c0-3.3,1.1-6.1,3.4-8.3c2.3-2.2,5.1-3.3,8.6-3.3C151.4,45.7,155.4,47.7,159.5,51.6z"/>
	<path class="st0" d="M213.2,46.8v43.9h-5.6v-7.5c-2.4,2.9-5,5-8,6.5c-2.9,1.5-6.2,2.2-9.7,2.2c-6.2,0-11.5-2.3-15.9-6.8
		c-4.4-4.5-6.6-10-6.6-16.4c0-6.3,2.2-11.7,6.7-16.2c4.4-4.5,9.8-6.7,16-6.7c3.6,0,6.9,0.8,9.8,2.3c2.9,1.5,5.5,3.8,7.7,6.9v-8.1
		H213.2z M190.7,51.2c-3.1,0-6,0.8-8.7,2.3c-2.7,1.5-4.8,3.7-6.3,6.5c-1.6,2.8-2.4,5.7-2.4,8.9c0,3.1,0.8,6,2.4,8.9s3.7,5,6.4,6.6
		c2.7,1.6,5.5,2.4,8.6,2.4c3.1,0,6-0.8,8.8-2.3c2.8-1.6,4.9-3.7,6.4-6.3c1.5-2.7,2.2-5.7,2.2-9c0-5.1-1.7-9.3-5-12.7
		C199.7,52.9,195.6,51.2,190.7,51.2z"/>
	<path class="st0" d="M227.9,28.8c1.3,0,2.4,0.5,3.3,1.4c0.9,0.9,1.4,2,1.4,3.3c0,1.3-0.5,2.4-1.4,3.3c-0.9,0.9-2,1.4-3.3,1.4
		c-1.3,0-2.3-0.5-3.3-1.4c-0.9-0.9-1.4-2-1.4-3.3c0-1.3,0.5-2.4,1.4-3.3C225.5,29.2,226.6,28.8,227.9,28.8z M225.1,46.8h5.6v43.9
		h-5.6V46.8z"/>
	<path class="st0" d="M241.6,29.9h5.6v60.8h-5.6V29.9z"/>
	<path class="st0" d="M281,51.6l-3.6,3.7c-3-2.9-6-4.4-8.9-4.4c-1.8,0-3.4,0.6-4.7,1.8s-2,2.6-2,4.2c0,1.4,0.5,2.8,1.6,4.1
		c1.1,1.3,3.3,2.9,6.8,4.6c4.2,2.2,7.1,4.3,8.6,6.3c1.5,2,2.2,4.3,2.2,6.9c0,3.6-1.3,6.7-3.8,9.2c-2.5,2.5-5.7,3.7-9.5,3.7
		c-2.5,0-4.9-0.6-7.2-1.7c-2.3-1.1-4.2-2.6-5.7-4.6l3.5-4c2.9,3.3,5.9,4.9,9.2,4.9c2.3,0,4.2-0.7,5.8-2.2s2.4-3.2,2.4-5.1
		c0-1.6-0.5-3-1.6-4.3c-1.1-1.2-3.4-2.8-7.1-4.7c-4-2-6.7-4.1-8.1-6c-1.4-2-2.1-4.3-2.1-6.8c0-3.3,1.1-6.1,3.4-8.3
		c2.3-2.2,5.1-3.3,8.6-3.3C272.9,45.7,277,47.7,281,51.6z"/>
	<path class="st0" d="M334.8,29.9v60.8h-5.6v-7.5c-2.4,2.9-5,5-8,6.5c-2.9,1.5-6.2,2.2-9.7,2.2c-6.2,0-11.5-2.3-15.9-6.8
		s-6.6-10-6.6-16.4c0-6.3,2.2-11.7,6.7-16.2c4.4-4.5,9.8-6.7,16-6.7c3.6,0,6.9,0.8,9.8,2.3c2.9,1.5,5.5,3.8,7.7,6.9v-25H334.8z
		 M312.3,51.2c-3.1,0-6,0.8-8.7,2.3c-2.7,1.5-4.8,3.7-6.3,6.5c-1.6,2.8-2.4,5.7-2.4,8.9c0,3.1,0.8,6,2.4,8.9c1.6,2.8,3.7,5,6.4,6.6
		c2.7,1.6,5.5,2.4,8.6,2.4c3.1,0,6-0.8,8.8-2.3c2.8-1.6,4.9-3.7,6.4-6.3c1.5-2.7,2.2-5.7,2.2-9c0-5.1-1.7-9.3-5-12.7
		C321.3,52.9,317.2,51.2,312.3,51.2z"/>
	<path class="st0" d="M368.4,45.7c6.8,0,12.4,2.4,16.8,7.3c4,4.5,6.1,9.7,6.1,15.8c0,6.1-2.1,11.5-6.4,16.1
		c-4.3,4.6-9.8,6.9-16.5,6.9c-6.7,0-12.2-2.3-16.5-6.9c-4.3-4.6-6.4-9.9-6.4-16.1c0-6.1,2-11.3,6.1-15.8
		C356,48.2,361.6,45.7,368.4,45.7z M368.4,51.2c-4.7,0-8.7,1.7-12.1,5.2c-3.4,3.5-5.1,7.7-5.1,12.6c0,3.2,0.8,6.1,2.3,8.9
		c1.5,2.7,3.6,4.9,6.2,6.3c2.6,1.5,5.5,2.2,8.6,2.2c3.1,0,6-0.7,8.6-2.2c2.6-1.5,4.7-3.6,6.2-6.3c1.5-2.7,2.3-5.7,2.3-8.9
		c0-4.9-1.7-9.1-5.1-12.6C377,53,373,51.2,368.4,51.2z"/>
	<path class="st0" d="M444.2,55.9l-4.5,2.8c-3.9-5.1-9.1-7.7-15.8-7.7c-5.3,0-9.8,1.7-13.3,5.2c-3.5,3.4-5.3,7.6-5.3,12.5
		c0,3.2,0.8,6.2,2.4,9c1.6,2.8,3.9,5,6.7,6.6c2.8,1.6,6,2.3,9.5,2.3c6.4,0,11.7-2.6,15.8-7.7l4.5,2.9c-2.1,3.2-4.9,5.6-8.4,7.3
		c-3.5,1.7-7.6,2.6-12.1,2.6c-6.9,0-12.7-2.2-17.3-6.6c-4.6-4.4-6.9-9.8-6.9-16.1c0-4.2,1.1-8.2,3.2-11.8c2.1-3.6,5.1-6.5,8.8-8.5
		c3.7-2,7.9-3.1,12.5-3.1c2.9,0,5.7,0.4,8.4,1.3c2.7,0.9,5,2,6.9,3.5C441.3,51.9,442.9,53.7,444.2,55.9z"/>
	<path class="st0" d="M455.1,29.9h5.6v34.6L481,46.8h8.3l-24.1,20.9l25.5,22.9h-7.9L460.7,71v19.7h-5.6V29.9z"/>
</g>
<path class="st1" d="M61.2,104.6V9.9c0,0-31.8,15.1-46.2,46.3c-8.3,17.9,2.1,46.2,5,53.4c10.9-3.2,24.7-5,39.7-5
	C60.3,104.6,60.7,104.6,61.2,104.6z"/>
<path class="st1" d="M89.4,75C79,58.5,65.7,53.8,65.7,53.8l0.6,50.8c12,0.4,23,2.1,32,4.6C98.4,103.8,97.7,88.1,89.4,75z"/>
</svg>
